<?xml version="1.0" encoding="UTF-8" standalone="no"?>
<!-- Generator: Adobe Illustrator 19.0.0, SVG Export Plug-In . SVG Version: 6.00 Build 0)  -->

<svg
   xmlns:dc="http://purl.org/dc/elements/1.1/"
   xmlns:cc="http://creativecommons.org/ns#"
   xmlns:rdf="http://www.w3.org/1999/02/22-rdf-syntax-ns#"
   xmlns:svg="http://www.w3.org/2000/svg"
   xmlns="http://www.w3.org/2000/svg"
   xmlns:sodipodi="http://sodipodi.sourceforge.net/DTD/sodipodi-0.dtd"
   xmlns:inkscape="http://www.inkscape.org/namespaces/inkscape"
   version="1.1"
   id="Capa_1"
   x="0px"
   y="0px"
   viewBox="0 0 426.667 426.667"
   style="enable-background:new 0 0 426.667 426.667;"
   xml:space="preserve"
   sodipodi:docname="404.svg"
   inkscape:version="0.92.4 (5da689c313, 2019-01-14)"><metadata
   id="metadata51"><rdf:RDF><cc:Work
       rdf:about=""><dc:format>image/svg+xml</dc:format><dc:type
         rdf:resource="http://purl.org/dc/dcmitype/StillImage" /></cc:Work></rdf:RDF></metadata><defs
   id="defs49" /><sodipodi:namedview
   pagecolor="#ffffff"
   bordercolor="#666666"
   borderopacity="1"
   objecttolerance="10"
   gridtolerance="10"
   guidetolerance="10"
   inkscape:pageopacity="0"
   inkscape:pageshadow="2"
   inkscape:window-width="1920"
   inkscape:window-height="1017"
   id="namedview47"
   showgrid="false"
   inkscape:zoom="0.55312458"
   inkscape:cx="213.3335"
   inkscape:cy="213.3335"
   inkscape:window-x="-8"
   inkscape:window-y="-8"
   inkscape:window-maximized="1"
   inkscape:current-layer="Capa_1" />
<g
   id="g14"
   style="fill:#2e75b6;fill-opacity:1">
	<g
   id="g12"
   style="fill:#2e75b6;fill-opacity:1">
		<g
   id="g10"
   style="fill:#2e75b6;fill-opacity:1">
			<path
   d="M138.667,192c17.707,0,32-14.293,32-32s-14.293-32-32-32s-32,14.293-32,32S120.96,192,138.667,192z"
   id="path2"
   style="fill:#2e75b6;fill-opacity:1" />
			<path
   d="M288,192c17.707,0,32-14.293,32-32s-14.293-32-32-32s-32,14.293-32,32S270.293,192,288,192z"
   id="path4"
   style="fill:#2e75b6;fill-opacity:1" />
			<path
   d="M213.12,0C95.36,0,0,95.573,0,213.333s95.36,213.333,213.12,213.333c117.973,0,213.547-95.573,213.547-213.333     S331.093,0,213.12,0z M213.333,384c-94.293,0-170.667-76.373-170.667-170.667S119.04,42.667,213.333,42.667     S384,119.04,384,213.333S307.627,384,213.333,384z"
   id="path6"
   style="fill:#2e75b6;fill-opacity:1" />
			<path
   d="M213.333,256c-49.707,0-92.16,31.04-109.227,74.667h35.733C154.667,305.28,181.867,288,213.333,288     s58.667,17.28,73.493,42.667h35.733C305.493,287.04,263.04,256,213.333,256z"
   id="path8"
   style="fill:#2e75b6;fill-opacity:1" />
		</g>
	</g>
</g>
<g
   id="g16">
</g>
<g
   id="g18">
</g>
<g
   id="g20">
</g>
<g
   id="g22">
</g>
<g
   id="g24">
</g>
<g
   id="g26">
</g>
<g
   id="g28">
</g>
<g
   id="g30">
</g>
<g
   id="g32">
</g>
<g
   id="g34">
</g>
<g
   id="g36">
</g>
<g
   id="g38">
</g>
<g
   id="g40">
</g>
<g
   id="g42">
</g>
<g
   id="g44">
</g>
</svg>