<?xml version="1.0" encoding="UTF-8" standalone="no"?>
<svg
   xmlns:dc="http://purl.org/dc/elements/1.1/"
   xmlns:cc="http://creativecommons.org/ns#"
   xmlns:rdf="http://www.w3.org/1999/02/22-rdf-syntax-ns#"
   xmlns:svg="http://www.w3.org/2000/svg"
   xmlns="http://www.w3.org/2000/svg"
   xmlns:sodipodi="http://sodipodi.sourceforge.net/DTD/sodipodi-0.dtd"
   xmlns:inkscape="http://www.inkscape.org/namespaces/inkscape"
   height="365pt"
   viewBox="0 0 365.71733 365"
   width="365pt"
   version="1.1"
   id="svg8"
   sodipodi:docname="delete.svg"
   inkscape:version="0.92.4 (5da689c313, 2019-01-14)">
  <metadata
     id="metadata14">
    <rdf:RDF>
      <cc:Work
         rdf:about="">
        <dc:format>image/svg+xml</dc:format>
        <dc:type
           rdf:resource="http://purl.org/dc/dcmitype/StillImage" />
        <dc:title></dc:title>
      </cc:Work>
    </rdf:RDF>
  </metadata>
  <defs
     id="defs12" />
  <sodipodi:namedview
     pagecolor="#ffffff"
     bordercolor="#666666"
     borderopacity="1"
     objecttolerance="10"
     gridtolerance="10"
     guidetolerance="10"
     inkscape:pageopacity="0"
     inkscape:pageshadow="2"
     inkscape:window-width="701"
     inkscape:window-height="480"
     id="namedview10"
     showgrid="false"
     inkscape:zoom="0.48493151"
     inkscape:cx="243.33333"
     inkscape:cy="243.33333"
     inkscape:window-x="0"
     inkscape:window-y="0"
     inkscape:window-maximized="0"
     inkscape:current-layer="svg8" />
  <g
     fill="#f44336"
     id="g6"
     style="fill:#666666">
    <path
       d="m356.339844 296.347656-286.613282-286.613281c-12.5-12.5-32.765624-12.5-45.246093 0l-15.105469 15.082031c-12.5 12.503906-12.5 32.769532 0 45.25l286.613281 286.613282c12.503907 12.5 32.769531 12.5 45.25 0l15.082031-15.082032c12.523438-12.480468 12.523438-32.75.019532-45.25zm0 0"
       id="path2"
       style="fill:#666666" />
    <path
       d="m295.988281 9.734375-286.613281 286.613281c-12.5 12.5-12.5 32.769532 0 45.25l15.082031 15.082032c12.503907 12.5 32.769531 12.5 45.25 0l286.632813-286.59375c12.503906-12.5 12.503906-32.765626 0-45.246094l-15.082032-15.082032c-12.5-12.523437-32.765624-12.523437-45.269531-.023437zm0 0"
       id="path4"
       style="fill:#666666" />
  </g>
</svg>
