<?xml version="1.0" encoding="UTF-8" standalone="no"?>
<!-- Created with Inkscape (http://www.inkscape.org/) -->

<svg
   xmlns:dc="http://purl.org/dc/elements/1.1/"
   xmlns:cc="http://creativecommons.org/ns#"
   xmlns:rdf="http://www.w3.org/1999/02/22-rdf-syntax-ns#"
   xmlns:svg="http://www.w3.org/2000/svg"
   xmlns="http://www.w3.org/2000/svg"
   xmlns:sodipodi="http://sodipodi.sourceforge.net/DTD/sodipodi-0.dtd"
   xmlns:inkscape="http://www.inkscape.org/namespaces/inkscape"
   width="23.63328mm"
   height="24.883175mm"
   viewBox="0 0 23.63328 24.883175"
   version="1.1"
   id="svg8"
   inkscape:version="0.92.4 (5da689c313, 2019-01-14)"
   sodipodi:docname="logo-single.svg">
  <defs
     id="defs2">
    <style
       id="style4493"
       type="text/css"><![CDATA[
    .fil0 {fill:#668A2A;fill-rule:nonzero}
    .fil1 {fill:#8CB035;fill-rule:nonzero}
    .fil2 {fill:#A2C858;fill-rule:nonzero}
    .fil3 {fill:#D1DE85;fill-rule:nonzero}
   ]]></style>
  </defs>
  <sodipodi:namedview
     id="base"
     pagecolor="#ffffff"
     bordercolor="#666666"
     borderopacity="1.0"
     inkscape:pageopacity="0.0"
     inkscape:pageshadow="2"
     inkscape:zoom="2.8"
     inkscape:cx="152.95451"
     inkscape:cy="9.1044473"
     inkscape:document-units="mm"
     inkscape:current-layer="layer1"
     showgrid="false"
     inkscape:window-width="1920"
     inkscape:window-height="1017"
     inkscape:window-x="-8"
     inkscape:window-y="-8"
     inkscape:window-maximized="1"
     showguides="true"
     inkscape:guide-bbox="true">
    <sodipodi:guide
       position="35.813244,8.9769346"
       orientation="0,1"
       id="guide4648"
       inkscape:locked="false" />
    <sodipodi:guide
       position="23.252877,15.053083"
       orientation="0,1"
       id="guide4650"
       inkscape:locked="false" />
  </sodipodi:namedview>
  <metadata
     id="metadata5">
    <rdf:RDF>
      <cc:Work
         rdf:about="">
        <dc:format>image/svg+xml</dc:format>
        <dc:type
           rdf:resource="http://purl.org/dc/dcmitype/StillImage" />
        <dc:title />
      </cc:Work>
    </rdf:RDF>
  </metadata>
  <g
     inkscape:label="Ebene 1"
     inkscape:groupmode="layer"
     id="layer1"
     transform="translate(-23.996598,-14.285802)">
    <path
       id="path4498"
       d="m 30.650628,33.408591 c 0,0.283793 -0.04227,0.543433 -0.132839,0.772882 -0.09057,0.22945 -0.217373,0.42267 -0.386441,0.5857 -0.169068,0.16303 -0.374364,0.283792 -0.61589,0.374365 -0.241526,0.09057 -0.531356,0.132839 -0.869492,0.132839 h -0.61589 v 2.052967 c 0,0.02415 -0.006,0.04227 -0.01812,0.06038 -0.01208,0.01811 -0.03019,0.03019 -0.06038,0.04227 -0.02415,0.01208 -0.06038,0.01811 -0.108687,0.02415 -0.0483,0.006 -0.102648,0.01208 -0.175106,0.01208 -0.07246,0 -0.126801,-0.006 -0.175106,-0.01208 -0.04831,-0.006 -0.08453,-0.01811 -0.108686,-0.02415 -0.03019,-0.01208 -0.04831,-0.02415 -0.06038,-0.04227 -0.01208,-0.01812 -0.01811,-0.03623 -0.01811,-0.06038 v -5.265258 c 0,-0.114725 0.03019,-0.199258 0.09057,-0.253602 0.06038,-0.0483 0.126801,-0.07246 0.199258,-0.07246 h 1.165361 c 0.120763,0 0.22945,0.006 0.338136,0.01811 0.108687,0.01208 0.235488,0.03019 0.380403,0.06642 0.144915,0.03623 0.295869,0.09661 0.452861,0.187182 0.150953,0.09057 0.283792,0.205297 0.392479,0.344174 0.108686,0.132839 0.187182,0.289831 0.247563,0.470975 0.06038,0.175106 0.08453,0.374364 0.08453,0.585699 z m -0.760805,0.06038 v 0 c 0,-0.22945 -0.04227,-0.428708 -0.126801,-0.579662 -0.08453,-0.156991 -0.187183,-0.271716 -0.307945,-0.350212 -0.120763,-0.0785 -0.247564,-0.126801 -0.380403,-0.144915 -0.132839,-0.01812 -0.25964,-0.03019 -0.380403,-0.03019 h -0.670234 v 2.288455 h 0.652119 c 0.217374,0 0.398518,-0.03019 0.543433,-0.09057 0.144915,-0.06038 0.265678,-0.138877 0.362288,-0.247564 0.09661,-0.102648 0.175107,-0.229449 0.223412,-0.374364 0.04831,-0.144916 0.0785,-0.301907 0.0785,-0.470975 z"
       class="fil0"
       inkscape:connector-curvature="0"
       style="clip-rule:evenodd;fill:#ececec;fill-opacity:1;fill-rule:nonzero;stroke-width:0.00603814;image-rendering:optimizeQuality;shape-rendering:geometricPrecision;text-rendering:geometricPrecision" />
    <polygon
       id="polygon4502"
       points="0,0 0,1038 2133,1038 2133,0 "
       class="fil1"
       style="clip-rule:evenodd;fill:#8cb035;fill-rule:nonzero;image-rendering:optimizeQuality;shape-rendering:geometricPrecision;text-rendering:geometricPrecision"
       transform="matrix(0.00603814,0,0,0.00603814,23.996598,14.285802)" />
    <polygon
       id="polygon4506"
       points="983,1212 0,1212 0,2256 983,2256 "
       class="fil2"
       style="clip-rule:evenodd;fill:#a2c858;fill-rule:nonzero;image-rendering:optimizeQuality;shape-rendering:geometricPrecision;text-rendering:geometricPrecision"
       transform="matrix(0.00603814,0,0,0.00603814,23.996598,14.285802)" />
    <polygon
       id="polygon4510"
       points="2923,4118 2923,1884 3914,1884 3914,4118 "
       class="fil3"
       style="clip-rule:evenodd;fill:#d1de85;fill-rule:nonzero;image-rendering:optimizeQuality;shape-rendering:geometricPrecision;text-rendering:geometricPrecision"
       transform="matrix(0.00603814,0,0,0.00603814,23.996598,14.285802)" />
    <polygon
       id="polygon4514"
       points="2756,4118 1759,4118 1759,3089 2756,3089 "
       class="fil1"
       style="clip-rule:evenodd;fill:#8cb035;fill-rule:nonzero;image-rendering:optimizeQuality;shape-rendering:geometricPrecision;text-rendering:geometricPrecision"
       transform="matrix(0.00603814,0,0,0.00603814,23.996598,14.285802)" />
    <path
       style="clip-rule:evenodd;fill:#ffffff;fill-rule:nonzero;stroke-width:0.00603814;image-rendering:optimizeQuality;shape-rendering:geometricPrecision;text-rendering:geometricPrecision"
       inkscape:connector-curvature="0"
       class="fil2"
       d="M 33.615355,39.168977 H 23.996598 V 28.96452 h 6.943861 V 21.610066 H 37.88432 V 14.29184 h 9.745558 v 10.204457 h -7.070662 v 7.318225 h -6.943861 z m -9.232316,-0.380403 v 0 h 8.851913 V 31.43412 h 6.943861 v -7.318226 h 7.070662 v -9.437613 h -8.978714 v 7.324264 H 31.3269 v 7.354454 h -6.943861 v 9.437613 z"
       id="path4519" />
    <path
       id="path4522"
       d="m 37.594489,26.054137 c 0,0.283792 -0.04831,0.543432 -0.132839,0.772882 -0.09057,0.229449 -0.217373,0.42267 -0.386441,0.585699 -0.169068,0.16303 -0.374364,0.283793 -0.61589,0.374365 -0.241526,0.09057 -0.531356,0.132839 -0.869492,0.132839 h -0.61589 v 2.052968 c 0,0.02415 -0.006,0.04227 -0.01812,0.06038 -0.01208,0.01812 -0.03019,0.03019 -0.06038,0.04227 -0.02415,0.01208 -0.06038,0.01811 -0.108687,0.02415 -0.0483,0.006 -0.102648,0.01208 -0.175106,0.01208 -0.07246,0 -0.126801,-0.006 -0.175106,-0.01208 -0.04831,-0.006 -0.08453,-0.01812 -0.114725,-0.02415 -0.03019,-0.01208 -0.04831,-0.02415 -0.06038,-0.04227 -0.01208,-0.01811 -0.01811,-0.03623 -0.01811,-0.06038 v -5.265258 c 0,-0.114725 0.03019,-0.199259 0.09057,-0.253602 0.06038,-0.0483 0.126801,-0.07246 0.199258,-0.07246 h 1.165361 c 0.114725,0 0.22945,0.006 0.338136,0.01812 0.108687,0.01208 0.235488,0.03019 0.380403,0.06642 0.144915,0.03623 0.295869,0.09661 0.45286,0.187182 0.150954,0.09057 0.283793,0.205297 0.39248,0.344174 0.108686,0.132839 0.187182,0.289831 0.247563,0.470975 0.06038,0.175106 0.08453,0.374365 0.08453,0.5857 z m -0.760805,0.06038 v 0 c 0,-0.229449 -0.04227,-0.428708 -0.126801,-0.579661 -0.08453,-0.156992 -0.187183,-0.271716 -0.307945,-0.350212 -0.120763,-0.0785 -0.247564,-0.126801 -0.380403,-0.144916 -0.132839,-0.01811 -0.25964,-0.03019 -0.380403,-0.03019 h -0.670234 v 2.288455 h 0.652119 c 0.217374,0 0.398518,-0.03019 0.543433,-0.09057 0.144915,-0.06038 0.265678,-0.138878 0.362288,-0.247564 0.09661,-0.102649 0.175107,-0.229449 0.223412,-0.374365 0.0483,-0.144915 0.07849,-0.301907 0.07849,-0.470975 z"
       class="fil0"
       inkscape:connector-curvature="0"
       style="clip-rule:evenodd;fill:#ececec;fill-opacity:1;fill-rule:nonzero;stroke-width:0.00603814;image-rendering:optimizeQuality;shape-rendering:geometricPrecision;text-rendering:geometricPrecision" />
    <path
       id="path4526"
       d="m 44.598732,18.729873 c 0,0.283793 -0.04227,0.543433 -0.132839,0.772882 -0.09057,0.229449 -0.217373,0.42267 -0.386441,0.5857 -0.169068,0.163029 -0.374365,0.283792 -0.615891,0.374364 -0.241525,0.09057 -0.531356,0.132839 -0.869492,0.132839 h -0.61589 v 2.052968 c 0,0.02415 -0.006,0.04227 -0.01811,0.06038 -0.01208,0.01812 -0.03019,0.03019 -0.06038,0.04227 -0.02415,0.01208 -0.06038,0.01812 -0.108686,0.02415 -0.04831,0.006 -0.102649,0.01208 -0.175106,0.01208 -0.07246,0 -0.126801,-0.006 -0.175107,-0.01208 -0.0483,-0.006 -0.08453,-0.01812 -0.108686,-0.02415 -0.03019,-0.01208 -0.0483,-0.02415 -0.06038,-0.04227 -0.01208,-0.01811 -0.01812,-0.03623 -0.01812,-0.06038 v -5.265258 c 0,-0.114725 0.03019,-0.199259 0.09057,-0.253602 0.06038,-0.0483 0.126801,-0.07246 0.199259,-0.07246 h 1.165361 c 0.120763,0 0.229449,0.006 0.338136,0.01812 0.108686,0.01208 0.235487,0.03019 0.380403,0.06642 0.144915,0.03623 0.295868,0.09661 0.45286,0.187183 0.150954,0.09057 0.283793,0.205296 0.392479,0.344174 0.108687,0.132839 0.187182,0.28983 0.247564,0.470974 0.06038,0.175107 0.08453,0.374365 0.08453,0.5857 z m -0.760806,0.06038 v 0 c 0,-0.229449 -0.04227,-0.428708 -0.126801,-0.579661 -0.08453,-0.156992 -0.187182,-0.271716 -0.307945,-0.350212 -0.120763,-0.0785 -0.247564,-0.126801 -0.380403,-0.144915 -0.132839,-0.01811 -0.25964,-0.03019 -0.380403,-0.03019 h -0.670233 v 2.288455 h 0.652119 c 0.217373,0 0.398517,-0.03019 0.543432,-0.09057 0.144916,-0.06038 0.265679,-0.138877 0.362289,-0.247564 0.09661,-0.102648 0.175106,-0.229449 0.223411,-0.374365 0.0483,-0.144915 0.0785,-0.301907 0.0785,-0.470975 z"
       class="fil0"
       inkscape:connector-curvature="0"
       style="clip-rule:evenodd;fill:#ececec;fill-opacity:1;fill-rule:nonzero;stroke-width:0.00603814;image-rendering:optimizeQuality;shape-rendering:geometricPrecision;text-rendering:geometricPrecision" />
  </g>
</svg>
