<?xml version="1.0" encoding="UTF-8" standalone="no"?>
<svg
   xmlns:dc="http://purl.org/dc/elements/1.1/"
   xmlns:cc="http://creativecommons.org/ns#"
   xmlns:rdf="http://www.w3.org/1999/02/22-rdf-syntax-ns#"
   xmlns:svg="http://www.w3.org/2000/svg"
   xmlns="http://www.w3.org/2000/svg"
   xmlns:sodipodi="http://sodipodi.sourceforge.net/DTD/sodipodi-0.dtd"
   xmlns:inkscape="http://www.inkscape.org/namespaces/inkscape"
   id="Bold"
   enable-background="new 0 0 24 24"
   height="433.40402"
   viewBox="0 0 23.066849 20.315814"
   width="492.09277"
   version="1.1"
   sodipodi:docname="success.svg"
   inkscape:version="0.92.4 (5da689c313, 2019-01-14)">
  <metadata
     id="metadata9">
    <rdf:RDF>
      <cc:Work
         rdf:about="">
        <dc:format>image/svg+xml</dc:format>
        <dc:type
           rdf:resource="http://purl.org/dc/dcmitype/StillImage" />
      </cc:Work>
    </rdf:RDF>
  </metadata>
  <defs
     id="defs7" />
  <sodipodi:namedview
     pagecolor="#ffffff"
     bordercolor="#666666"
     borderopacity="1"
     objecttolerance="10"
     gridtolerance="10"
     guidetolerance="10"
     inkscape:pageopacity="0"
     inkscape:pageshadow="2"
     inkscape:window-width="1920"
     inkscape:window-height="1017"
     id="namedview5"
     showgrid="false"
     inkscape:zoom="0.4609375"
     inkscape:cx="-122.76375"
     inkscape:cy="216.704"
     inkscape:window-x="-8"
     inkscape:window-y="-8"
     inkscape:window-maximized="1"
     inkscape:current-layer="Bold" />
  <path
     d="m 0.36158462,11.493813 c -0.261,0.304 -0.388,0.691 -0.357,1.091 0.031,0.4 0.215,0.764 0.52,1.024 l 7.40299998,6.346 c 0.275,0.235 0.616,0.361 0.974,0.361 0.044,0 0.089,-0.002 0.134,-0.006 0.405,-0.036 0.77,-0.229 1.0280004,-0.542 l 12.662,-15.4109996 c 0.254,-0.31 0.373,-0.7 0.334,-1.099 -0.04,-0.399 -0.231,-0.759 -0.541,-1.014 l -2.318,-1.90399996 c -0.639,-0.524 -1.585,-0.432 -2.111,0.207 L 8.3445846,12.407813 l -3.916,-3.3549996 c -0.628,-0.536 -1.576,-0.465 -2.115,0.163 z"
     id="path2"
     style="fill:#008000;fill-opacity:0.61214953"
     inkscape:connector-curvature="0" />
</svg>
