<?xml version="1.0" encoding="UTF-8" standalone="no"?>
<!-- Generator: Adobe Illustrator 19.0.0, SVG Export Plug-In . SVG Version: 6.00 Build 0)  -->

<svg
   xmlns:dc="http://purl.org/dc/elements/1.1/"
   xmlns:cc="http://creativecommons.org/ns#"
   xmlns:rdf="http://www.w3.org/1999/02/22-rdf-syntax-ns#"
   xmlns:svg="http://www.w3.org/2000/svg"
   xmlns="http://www.w3.org/2000/svg"
   xmlns:sodipodi="http://sodipodi.sourceforge.net/DTD/sodipodi-0.dtd"
   xmlns:inkscape="http://www.inkscape.org/namespaces/inkscape"
   version="1.1"
   id="Capa_1"
   x="0px"
   y="0px"
   viewBox="0 0 512 390.03604"
   xml:space="preserve"
   sodipodi:docname="reset.svg"
   inkscape:version="0.92.4 (5da689c313, 2019-01-14)"
   width="512"
   height="390.03604"><metadata
   id="metadata43"><rdf:RDF><cc:Work
       rdf:about=""><dc:format>image/svg+xml</dc:format><dc:type
         rdf:resource="http://purl.org/dc/dcmitype/StillImage" /></cc:Work></rdf:RDF></metadata><defs
   id="defs41" /><sodipodi:namedview
   pagecolor="#ffffff"
   bordercolor="#666666"
   borderopacity="1"
   objecttolerance="10"
   gridtolerance="10"
   guidetolerance="10"
   inkscape:pageopacity="0"
   inkscape:pageshadow="2"
   inkscape:window-width="701"
   inkscape:window-height="480"
   id="namedview39"
   showgrid="false"
   inkscape:zoom="0.4609375"
   inkscape:cx="256"
   inkscape:cy="195.01786"
   inkscape:window-x="4"
   inkscape:window-y="6"
   inkscape:window-maximized="0"
   inkscape:current-layer="Capa_1" />
<g
   id="g6"
   style="fill:#666666"
   transform="translate(0,-60.981801)">
	<g
   id="g4"
   style="fill:#666666">
		<path
   d="M 497,150.996 H 239.995 v -75 c 0,-12.89 -15.24,-19.67 -24.76,-11.38 l -210,180 c -6.98,5.94 -6.98,16.82 0,22.76 l 210,180 c 9.56,8.29 24.76,1.55 24.76,-11.38 v -75.2 H 497 c 8.29,0 15,-6.51 15,-14.8 v -180 c 0,-8.29 -6.71,-15 -15,-15 z"
   id="path2"
   style="fill:#666666"
   inkscape:connector-curvature="0" />
	</g>
</g>
<g
   id="g8"
   transform="translate(0,-60.981801)">
</g>
<g
   id="g10"
   transform="translate(0,-60.981801)">
</g>
<g
   id="g12"
   transform="translate(0,-60.981801)">
</g>
<g
   id="g14"
   transform="translate(0,-60.981801)">
</g>
<g
   id="g16"
   transform="translate(0,-60.981801)">
</g>
<g
   id="g18"
   transform="translate(0,-60.981801)">
</g>
<g
   id="g20"
   transform="translate(0,-60.981801)">
</g>
<g
   id="g22"
   transform="translate(0,-60.981801)">
</g>
<g
   id="g24"
   transform="translate(0,-60.981801)">
</g>
<g
   id="g26"
   transform="translate(0,-60.981801)">
</g>
<g
   id="g28"
   transform="translate(0,-60.981801)">
</g>
<g
   id="g30"
   transform="translate(0,-60.981801)">
</g>
<g
   id="g32"
   transform="translate(0,-60.981801)">
</g>
<g
   id="g34"
   transform="translate(0,-60.981801)">
</g>
<g
   id="g36"
   transform="translate(0,-60.981801)">
</g>
</svg>