<?xml version="1.0" encoding="UTF-8" standalone="no"?>
<!-- Generator: Adobe Illustrator 19.0.0, SVG Export Plug-In . SVG Version: 6.00 Build 0)  -->

<svg
   xmlns:dc="http://purl.org/dc/elements/1.1/"
   xmlns:cc="http://creativecommons.org/ns#"
   xmlns:rdf="http://www.w3.org/1999/02/22-rdf-syntax-ns#"
   xmlns:svg="http://www.w3.org/2000/svg"
   xmlns="http://www.w3.org/2000/svg"
   xmlns:sodipodi="http://sodipodi.sourceforge.net/DTD/sodipodi-0.dtd"
   xmlns:inkscape="http://www.inkscape.org/namespaces/inkscape"
   version="1.1"
   id="Capa_1"
   x="0px"
   y="0px"
   viewBox="0 0 511.969 511.969"
   style="enable-background:new 0 0 511.969 511.969;"
   xml:space="preserve"
   sodipodi:docname="001-roundabout.svg"
   inkscape:version="0.92.4 (5da689c313, 2019-01-14)"><metadata
   id="metadata55"><rdf:RDF><cc:Work
       rdf:about=""><dc:format>image/svg+xml</dc:format><dc:type
         rdf:resource="http://purl.org/dc/dcmitype/StillImage" /></cc:Work></rdf:RDF></metadata><defs
   id="defs53" /><sodipodi:namedview
   pagecolor="#ffffff"
   bordercolor="#666666"
   borderopacity="1"
   objecttolerance="10"
   gridtolerance="10"
   guidetolerance="10"
   inkscape:pageopacity="0"
   inkscape:pageshadow="2"
   inkscape:window-width="1920"
   inkscape:window-height="1017"
   id="namedview51"
   showgrid="false"
   inkscape:zoom="0.46096542"
   inkscape:cx="255.9845"
   inkscape:cy="255.9845"
   inkscape:window-x="-8"
   inkscape:window-y="-8"
   inkscape:window-maximized="1"
   inkscape:current-layer="Capa_1" />
<g
   id="g6"
   style="fill:#008ad5;fill-opacity:1">
	<g
   id="g4"
   style="fill:#008ad5;fill-opacity:1">
		<path
   d="M510.76,249.879c-2.464-5.984-8.32-9.888-14.784-9.888h-16c0-117.888-91.552-214.784-207.232-223.392    c-9.12-0.672-16.768,7.008-16.768,16.128v64.32c0,8.384,6.592,14.816,14.912,15.808c63.584,7.392,113.088,61.6,113.088,127.136    h-16c-6.464,0-12.32,3.904-14.784,9.888s-1.088,12.864,3.456,17.44l64,64c3.136,3.104,7.232,4.672,11.328,4.672    s8.192-1.568,11.328-4.672l64-64C511.848,262.711,513.224,255.863,510.76,249.879z"
   id="path2"
   style="fill:#008ad5;fill-opacity:1" />
	</g>
</g>
<g
   id="g12"
   style="fill:#008ad5;fill-opacity:1">
	<g
   id="g10"
   style="fill:#008ad5;fill-opacity:1">
		<path
   d="M219.08,47.447c-2.048-3.52-5.44-6.304-9.728-7.456l-87.424-23.456c-6.24-1.664-12.896,0.576-16.832,5.696    c-3.968,5.152-4.416,12.16-1.152,17.76l8,13.856C9.864,112.791-28.28,240.503,22.12,345.015    c3.968,8.224,14.432,11.008,22.336,6.464l55.712-32.16c7.264-4.192,9.536-13.12,6.24-20.8    c-25.376-58.784-3.2-128.736,53.568-161.504l8,13.856c3.2,5.568,9.472,8.672,15.904,7.84c6.432-0.864,11.68-5.472,13.376-11.712    l23.424-87.424C221.832,55.319,221.128,50.967,219.08,47.447z"
   id="path8"
   style="fill:#008ad5;fill-opacity:1" />
	</g>
</g>
<g
   id="g18"
   style="fill:#008ad5;fill-opacity:1">
	<g
   id="g16"
   style="fill:#008ad5;fill-opacity:1">
		<path
   d="M432.776,375.671l-55.712-32.16c-7.264-4.192-16.128-1.728-21.12,5.024c-38.208,51.36-109.888,67.136-166.656,34.368    l8-13.856c3.232-5.6,2.784-12.608-1.152-17.728s-10.624-7.392-16.864-5.728l-87.424,23.424c-4.256,1.152-7.68,3.904-9.728,7.456    c-2.048,3.552-2.752,7.872-1.6,12.128l23.424,87.424c1.696,6.24,6.944,10.88,13.376,11.712c6.432,0.864,12.704-2.272,15.936-7.872    l8-13.856c102.08,58.944,231.776,28.128,297.088-67.776C443.464,390.679,440.648,380.215,432.776,375.671z"
   id="path14"
   style="fill:#008ad5;fill-opacity:1" />
	</g>
</g>
<g
   id="g20">
</g>
<g
   id="g22">
</g>
<g
   id="g24">
</g>
<g
   id="g26">
</g>
<g
   id="g28">
</g>
<g
   id="g30">
</g>
<g
   id="g32">
</g>
<g
   id="g34">
</g>
<g
   id="g36">
</g>
<g
   id="g38">
</g>
<g
   id="g40">
</g>
<g
   id="g42">
</g>
<g
   id="g44">
</g>
<g
   id="g46">
</g>
<g
   id="g48">
</g>
</svg>